<svg aria-hidden="true" style="position: absolute; width: 0; height: 0; overflow: hidden;" version="1.1" xmlns="http://www.w3.org/2000/svg" xmlns:xlink="http://www.w3.org/1999/xlink">
<defs>
<symbol id="icon-Browse-Icon" viewBox="0 0 32 32">
<path d="M25.494 0.044l-12.694 2.894c-0.704 0.199-1.215 0.825-1.238 1.573l-0 0.003v1.906h-0.020v16.106c-0.025 0.744-0.53 1.363-1.214 1.559l-0.012 0.003-3.482 0.8c-1.61 0.461-2.779 1.896-2.834 3.612l-0 0.006v0.294c-0 0.007-0 0.014-0 0.022 0 1.745 1.407 3.162 3.149 3.178h1.213c2.415-0.020 4.364-1.982 4.364-4.4 0-0.014-0-0.028-0-0.042l0 0.002v-11.118h0.022v-5.042c0.017-0.59 0.425-1.080 0.973-1.22l0.009-0.002 11.536-2.378c0.042-0.009 0.090-0.013 0.14-0.013 0.405 0 0.734 0.329 0.734 0.734 0 0.003 0 0.005-0 0.008v-0 10.148c-0.024 0.743-0.53 1.362-1.214 1.555l-0.012 0.003-3.588 0.818c-1.602 0.452-2.767 1.876-2.822 3.58l-0 0.006v0.296c-0 0.005-0 0.012-0 0.018 0 1.754 1.411 3.178 3.16 3.2l0.002 0h1.258c2.436-0.026 4.4-2.006 4.4-4.446 0-0.013-0-0.027-0-0.040v0.002-22.124c0.002-0.030 0.003-0.065 0.003-0.1 0-0.797-0.646-1.444-1.443-1.444h-0c-0.139 0.001-0.273 0.017-0.402 0.046l0.012-0.002z"></path>
</symbol>
<symbol id="icon-Icon-2" viewBox="0 0 32 32">
<path stroke-linejoin="miter" stroke-linecap="butt" stroke-miterlimit="10" stroke-width="1.2308" d="M29.538 17.846c0 7.477-6.061 13.538-13.538 13.538s-13.538-6.061-13.538-13.538c0-7.477 6.061-13.538 13.538-13.538s13.538 6.061 13.538 13.538z"></path>
<path stroke-linejoin="miter" stroke-linecap="butt" stroke-miterlimit="10" stroke-width="1.2308" d="M28.923 17.846c0 7.137-5.786 12.923-12.923 12.923s-12.923-5.786-12.923-12.923c0-7.137 5.786-12.923 12.923-12.923s12.923 5.786 12.923 12.923z"></path>
<path stroke-linejoin="miter" stroke-linecap="butt" stroke-miterlimit="10" stroke-width="1.2308" d="M3.802 30.85l3.692-3.692"></path>
<path stroke-linejoin="miter" stroke-linecap="butt" stroke-miterlimit="10" stroke-width="1.2308" d="M24.725 27.158l3.138 3.138"></path>
<path d="M1.349 8.534c2.581-1.636 6.125-4.471 7.859-6.122-0.754-0.369-1.589-0.566-2.439-0.566-3.054 0-5.538 2.485-5.538 5.538 0 0.391 0.040 0.775 0.118 1.149zM0.684 10.353c-0.438-0.896-0.684-1.903-0.684-2.968 0-3.739 3.031-6.769 6.769-6.769 1.648 0 3.159 0.589 4.333 1.568-1.174 1.591-7.3 6.514-10.418 8.169z"></path>
<path d="M30.675 8.534c0.079-0.374 0.118-0.758 0.118-1.149 0-3.054-2.485-5.538-5.538-5.538-0.85 0-1.685 0.197-2.439 0.566 1.734 1.651 5.278 4.486 7.859 6.122zM31.341 10.353c-3.118-1.656-9.244-6.579-10.418-8.169 1.174-0.979 2.684-1.568 4.333-1.568 3.739 0 6.769 3.031 6.769 6.769 0 1.065-0.246 2.072-0.684 2.968z"></path>
<path d="M14.879 7.466v9.846h-6.154v1.231h7.385v-11.077z"></path>
</symbol>
<symbol id="icon-Icon-3" viewBox="0 0 32 32">
<path stroke-linejoin="miter" stroke-linecap="butt" stroke-miterlimit="10" stroke-width="1.0323" d="M30.459 26.839h-0.050c-0.567-0.004-1.025-0.465-1.025-1.032 0 0 0-0 0-0v0-2.126h-26.771v2.126c0 0 0 0 0 0 0 0.568-0.458 1.028-1.025 1.032h-0.048c-0.567-0.004-1.025-0.465-1.025-1.032 0 0 0-0 0-0v0-12.387c0 0 0-0 0-0 0-0.568 0.458-1.028 1.025-1.032h0.018c0.566 0.006 1.022 0.466 1.022 1.032 0 0 0 0 0 0v0 1.032h26.839v-1.032c0 0 0 0 0-0 0-0.568 0.459-1.029 1.026-1.032h0.017c0.566 0.006 1.022 0.466 1.022 1.032 0 0 0 0 0 0v0 12.387c0 0 0 0 0 0 0 0.568-0.458 1.028-1.025 1.032h-0zM26.316 12.387h-11.355v-1.032c0-0.57-0.462-1.032-1.032-1.032v0h-7.22c-0.57 0-1.032 0.462-1.032 1.032v0 1.017l9.29 0.015h-11.355v-7.057c0.001-0.378 0.307-0.684 0.684-0.685h23.398c0.378 0.001 0.685 0.307 0.685 0.685v7.057h-2.065v-1.032c0-0.57-0.462-1.032-1.032-1.032v0h-7.22c-0.57 0-1.032 0.462-1.032 1.032v0 1.017l9.29 0.014z"></path>
</symbol>
<symbol id="icon-Icon-4" viewBox="0 0 32 32">
<path d="M16 30.72c7.058 0 12.8-5.742 12.8-12.8s-5.742-12.801-12.8-12.801-12.8 5.742-12.8 12.801c0 7.058 5.742 12.8 12.8 12.8zM28.613 6.853v0zM16 32c-7.776 0-14.080-6.304-14.080-14.080 0-7.777 6.304-14.081 14.080-14.081s14.080 6.304 14.080 14.081c0 7.776-6.304 14.080-14.080 14.080zM28.613 8.663l-2.715-2.715 1.81-1.811 2.715 2.715-1.81 1.811zM18.559 2.56h-5.12v-2.56h5.12v2.56z"></path>
<path d="M15.217 21.531v-1.39c-0.752-0.272-1.279-0.979-1.279-1.81s0.528-1.538 1.266-1.806l0.013-0.004v-9.070h1.28v9.069c0.754 0.271 1.283 0.979 1.283 1.811s-0.529 1.54-1.269 1.807l-0.013 0.004v1.389z"></path>
</symbol>
<symbol id="icon-Icon-5" viewBox="0 0 32 32">
<path stroke-linejoin="miter" stroke-linecap="butt" stroke-miterlimit="10" stroke-width="1.0667" d="M6.195 6.195c-2.509 2.509-4.061 5.976-4.061 9.805 0 7.658 6.208 13.866 13.866 13.867h0c7.658 0 13.867-6.208 13.867-13.867s-6.208-13.867-13.867-13.867v0"></path>
<path d="M15.104 2.183v7.467h1.067v-7.467z"></path>
<path d="M17.481 17.482c0.625-0.625 0.625-1.638 0-2.263v0c-0.625-0.625-8.297-6.034-8.297-6.034s5.409 7.672 6.034 8.297c0.625 0.625 1.638 0.625 2.263 0v0z"></path>
</symbol>
<symbol id="icon-Icon" viewBox="0 0 32 32">
<path d="M11.26 28h8c-0.364 1.731-1.878 3.013-3.691 3.013-0.109 0-0.216-0.005-0.322-0.014l0.014 0.001c-0.092 0.008-0.199 0.012-0.307 0.012-1.814 0-3.329-1.281-3.689-2.988l-0.004-0.025zM15.26 26h-10.556c-0.344-0-0.672-0.069-0.971-0.192l0.017 0.006c-0.447-0.207-0.752-0.651-0.752-1.167 0-0.415 0.197-0.784 0.503-1.018l0.003-0.002 1.314-0.97c1.899-1.311 3.128-3.477 3.128-5.929 0-0.025-0-0.050-0-0.075l0 0.004v-6.308c-0.002-0.060-0.002-0.13-0.002-0.2 0-3.865 2.666-7.107 6.26-7.988l0.056-0.012v-2.148h2v2.068c3.887 0.681 6.803 4.031 6.803 8.062 0 0.077-0.001 0.153-0.003 0.23l0-0.011v6.302c-0 0.021-0 0.046-0 0.072 0 2.452 1.228 4.616 3.102 5.913l0.024 0.016 1.316 0.97c0.309 0.237 0.506 0.606 0.506 1.021 0 0.516-0.305 0.961-0.744 1.164l-0.008 0.003c-0.282 0.117-0.61 0.186-0.954 0.186h-0z"></path>
</symbol>
<symbol id="icon-Icon-1" viewBox="0 0 32 32">
<path d="M2.526 18.496c0-6.107 4.2-11.2 8.335-12.396-0.484 1.66-0.785 3.575-0.833 5.552l-0.001 0.028c-0.019 0.254-0.029 0.55-0.029 0.849 0 3.693 1.617 7.009 4.183 9.277l0.013 0.011c2.453 1.589 5.452 2.534 8.671 2.534 0.17 0 0.339-0.003 0.507-0.008l-0.025 0.001c0.002 0 0.004 0 0.006 0 0.889 0 1.756-0.097 2.589-0.281l-0.079 0.015c-1.989 4.193-6.175 7.047-11.031 7.080l-0.004 0c-6.817-0.103-12.304-5.653-12.304-12.485 0-0.062 0-0.124 0.001-0.186l-0 0.009zM16.514 17.794v-1.036l4.28-5.642v-0.025h-4.256v-1.27h6.063v1.095l-4.173 5.58v0.029h4.211v1.27zM24.706 12.783v-0.807l3.326-4.397v-0.010h-3.309v-0.987h4.716v0.842l-3.245 4.347v0.019h3.281v0.994zM21.221 4.429v-0.574l2.381-3.136v-0.013h-2.358v-0.706h3.368v0.608l-2.326 3.097v0.017h2.344v0.707z"></path>
</symbol>
<symbol id="icon-Icon-21" viewBox="0 0 32 32">
<path d="M28.817 31.454l-8.549-8.549c-0.153-0.153-0.279-0.332-0.372-0.53l-0.005-0.011c-2.057 1.561-4.659 2.5-7.481 2.5-6.872 0-12.443-5.571-12.443-12.443s5.571-12.443 12.443-12.443c6.872 0 12.443 5.571 12.443 12.443 0 2.822-0.939 5.425-2.523 7.512l0.023-0.031c0.21 0.097 0.389 0.224 0.542 0.377l8.549 8.549c0.337 0.337 0.546 0.803 0.546 1.318 0 1.030-0.835 1.864-1.864 1.864-0.515 0-0.981-0.209-1.318-0.546v0zM2.486 12.428c0 0.001 0 0.002 0 0.002 0 5.492 4.452 9.945 9.945 9.945s9.945-4.452 9.945-9.945c0-5.492-4.452-9.945-9.945-9.945-0.001 0-0.002 0-0.003 0h0c-5.488 0.007-9.935 4.454-9.942 9.941v0.001z"></path>
</symbol>
<symbol id="icon-Icon-31" viewBox="0 0 32 32">
<path d="M14.629 32v-14.629h-14.629v-2.743h14.629v-14.629h2.743v14.629h14.629v2.743h-14.629v14.629z"></path>
</symbol>
<symbol id="icon-Path" viewBox="0 0 32 32">
<path d="M16 0c-8.837 0-16 7.163-16 16s7.163 16 16 16c8.837 0 16-7.163 16-16v0c0-8.837-7.163-16-16-16v0z"></path>
</symbol>
<symbol id="icon-Timer" viewBox="0 0 32 32">
<path d="M13.298 26.596c-0.001 0-0.002 0-0.002 0-0.948 0-1.873-0.098-2.765-0.286l0.087 0.015c-1.804-0.377-3.399-1.073-4.801-2.030l0.045 0.029c-2.121-1.446-3.776-3.432-4.785-5.764l-0.033-0.086c-0.31-0.709-0.577-1.544-0.76-2.41l-0.015-0.086c-0.172-0.806-0.27-1.731-0.27-2.68s0.098-1.874 0.285-2.767l-0.015 0.087c0.377-1.804 1.073-3.399 2.031-4.801l-0.029 0.045c1.446-2.121 3.432-3.776 5.764-4.785l0.086-0.033c0.709-0.31 1.544-0.577 2.41-0.76l0.086-0.015c0.806-0.172 1.731-0.27 2.68-0.27s1.874 0.098 2.767 0.285l-0.087-0.015c1.804 0.377 3.399 1.073 4.801 2.030l-0.045-0.029c2.121 1.446 3.776 3.433 4.785 5.764l0.033 0.086c0.31 0.709 0.577 1.544 0.76 2.41l0.015 0.086c0.172 0.806 0.27 1.731 0.27 2.68s-0.098 1.874-0.285 2.767l0.015-0.087c-0.377 1.804-1.073 3.399-2.030 4.801l0.029-0.045c-1.446 2.121-3.433 3.776-5.764 4.785l-0.086 0.033c-0.709 0.31-1.544 0.577-2.41 0.76l-0.086 0.015c-0.805 0.172-1.73 0.27-2.677 0.27-0.001 0-0.002 0-0.003 0h0zM13.341 3.552c-5.398 0-9.789 4.392-9.789 9.789s4.392 9.79 9.789 9.79 9.79-4.392 9.79-9.79-4.392-9.789-9.79-9.789z"></path>
<path d="M23.631 21.665c-0 0.001-0.001 0.001-0.002 0.002-0.596 0.737-1.255 1.393-1.962 1.969l0.067-0.058c-1.428 1.165-2.973 1.967-4.599 2.453l0.051-0.017c-2.459 0.739-5.044 0.775-7.491 0.091l-0.088-0.029c-0.746-0.205-1.563-0.523-2.351-0.926l-0.077-0.042c-0.734-0.373-1.514-0.878-2.251-1.475-0.001-0.001-0.001-0.001-0.002-0.002l0 0c0.795-0.982 1.549-1.909 2.242-2.755 0.009 0.007 0.018 0.015 0.027 0.022 4.195 3.397 10.372 2.748 13.769-1.447 3.381-4.175 2.748-10.338-1.409-13.738 0.63-0.818 1.32-1.718 2.109-2.751 0.001 0.001 0.001 0.001 0.002 0.002 0.737 0.596 1.393 1.255 1.969 1.962l-0.058-0.067c1.165 1.429 1.967 2.973 2.453 4.599l-0.017-0.051c0.739 2.459 0.774 5.044 0.091 7.491l-0.029 0.088c-0.205 0.746-0.523 1.563-0.926 2.351l-0.042 0.077c-0.373 0.734-0.878 1.514-1.475 2.251-0.001 0.001-0.001 0.001-0.002 0.002l0-0z"></path>
<path d="M13.199 4.025h0.17v0.51h-0.17v-0.51z"></path>
<path d="M17.623 20.998l0.147-0.085 0.255 0.442-0.147 0.085-0.255-0.442z"></path>
<path d="M20.898 17.823l0.093-0.143 0.428 0.278-0.093 0.143-0.428-0.278z"></path>
<path opacity="0.5" d="M14.436 22.066h-0c0.023-0.002 0.044 0.015 0.047 0.038l0.045 0.423c0.002 0.023-0.014 0.044-0.038 0.047h0c-0.023 0.002-0.044-0.015-0.047-0.038l-0.045-0.423c-0.002-0.023 0.014-0.044 0.038-0.047z"></path>
<path opacity="0.5" d="M16.668 21.487l-0 0c0.021-0.010 0.047 0 0.056 0.022l0.173 0.389c0.010 0.021-0 0.047-0.022 0.056l0-0c-0.021 0.010-0.047-0-0.056-0.022l-0.173-0.389c-0.010-0.021 0-0.047 0.022-0.056z"></path>
<path opacity="0.5" d="M15.576 21.842h-0c0.023-0.005 0.046 0.009 0.051 0.032l0.096 0.414c0.005 0.023-0.009 0.046-0.032 0.051h0c-0.023 0.005-0.046-0.009-0.051-0.032l-0.096-0.414c-0.005-0.023 0.009-0.046 0.032-0.051z"></path>
<path opacity="0.5" d="M18.635 20.301l-0 0c0.019-0.014 0.045-0.010 0.060 0.008l0.256 0.34c0.014 0.019 0.010 0.045-0.008 0.060l0-0c-0.019 0.014-0.045 0.010-0.060-0.008l-0.256-0.34c-0.014-0.019-0.010-0.045 0.008-0.060z"></path>
<path opacity="0.5" d="M20.244 18.692l-0 0c0.014-0.019 0.041-0.022 0.060-0.007l0.335 0.262c0.019 0.014 0.022 0.041 0.007 0.060l0-0c-0.014 0.019-0.041 0.022-0.060 0.007l-0.335-0.262c-0.019-0.014-0.022-0.041-0.007-0.060z"></path>
<path opacity="0.5" d="M19.525 19.581l-0 0c0.017-0.016 0.044-0.016 0.060 0.001l0.296 0.306c0.016 0.017 0.016 0.044-0.001 0.060l0-0c-0.017 0.016-0.044 0.016-0.060-0.001l-0.296-0.306c-0.016-0.017-0.016-0.044 0.001-0.060z"></path>
<path opacity="0.5" d="M21.424 16.741l-0 0c0.008-0.022 0.033-0.033 0.055-0.024l0.397 0.152c0.022 0.008 0.033 0.033 0.024 0.055l0-0c-0.008 0.022-0.033 0.033-0.055 0.024l-0.397-0.152c-0.022-0.008-0.033-0.033-0.024-0.055z"></path>
<path opacity="0.5" d="M22.009 14.489v0c0.003-0.023 0.024-0.040 0.047-0.037l0.422 0.052c0.023 0.003 0.040 0.024 0.037 0.047v-0c-0.003 0.023-0.024 0.040-0.047 0.037l-0.422-0.052c-0.023-0.003-0.040-0.024-0.037-0.047z"></path>
<path opacity="0.5" d="M21.802 15.594v0c0.006-0.023 0.029-0.036 0.052-0.030l0.411 0.11c0.023 0.006 0.036 0.029 0.030 0.052v-0c-0.006 0.023-0.029 0.036-0.052 0.030l-0.411-0.11c-0.023-0.006-0.036-0.029-0.030-0.052z"></path>
<path d="M22.6 13.256v0.17h-0.51v-0.17h0.51z"></path>
<path opacity="0.5" d="M22.010 12.193v0c-0.003-0.023 0.013-0.045 0.036-0.048l0.421-0.059c0.023-0.003 0.045 0.013 0.048 0.036v-0c0.003 0.023-0.013 0.045-0.036 0.048l-0.421 0.059c-0.023 0.003-0.045-0.013-0.048-0.036z"></path>
<path opacity="0.5" d="M21.426 9.972l0 0c-0.010-0.021 0-0.047 0.022-0.056l0.389-0.173c0.021-0.010 0.047 0 0.056 0.022l-0-0c0.010 0.021-0 0.047-0.022 0.056l-0.389 0.173c-0.021 0.010-0.047-0-0.056-0.022z"></path>
<path opacity="0.5" d="M21.802 11.039v0c-0.006-0.023 0.008-0.046 0.031-0.052l0.413-0.103c0.023-0.006 0.046 0.008 0.052 0.031v-0c0.006 0.023-0.008 0.046-0.031 0.052l-0.413 0.103c-0.023 0.006-0.046-0.008-0.052-0.031z"></path>
<path d="M21.293 8.62l0.088 0.146-0.438 0.263-0.088-0.146 0.438-0.263z"></path>
<path opacity="0.5" d="M20.284 7.962l0 0c-0.013-0.019-0.008-0.046 0.011-0.059l0.353-0.238c0.019-0.013 0.046-0.008 0.059 0.011l-0-0c0.013 0.019 0.008 0.046-0.011 0.059l-0.353 0.238c-0.019 0.013-0.046 0.008-0.059-0.011z"></path>
<path opacity="0.5" d="M18.635 6.325l0 0c-0.019-0.014-0.022-0.041-0.007-0.060l0.262-0.335c0.014-0.019 0.041-0.022 0.060-0.007l-0-0c0.019 0.014 0.022 0.041 0.007 0.060l-0.262 0.335c-0.014 0.019-0.041 0.022-0.060 0.007z"></path>
<path opacity="0.5" d="M19.523 7.085l0 0c-0.016-0.017-0.015-0.044 0.002-0.060l0.311-0.29c0.017-0.016 0.044-0.015 0.060 0.002l-0-0c0.016 0.017 0.015 0.044-0.002 0.060l-0.311 0.29c-0.017 0.016-0.044 0.015-0.060-0.002z"></path>
<path opacity="0.5" d="M16.641 5.19l0 0c-0.021-0.010-0.031-0.035-0.022-0.056l0.173-0.389c0.010-0.021 0.035-0.031 0.056-0.022l-0-0c0.021 0.010 0.031 0.035 0.022 0.056l-0.173 0.389c-0.010 0.021-0.035 0.031-0.056 0.022z"></path>
<path opacity="0.5" d="M14.47 4.622h0c-0.023-0.002-0.040-0.023-0.038-0.047l0.045-0.423c0.002-0.023 0.023-0.040 0.047-0.038h-0c0.023 0.002 0.040 0.023 0.038 0.047l-0.045 0.423c-0.002 0.023-0.023 0.040-0.047 0.038z"></path>
<path opacity="0.5" d="M15.58 4.83h0c-0.023-0.005-0.037-0.028-0.032-0.051l0.096-0.414c0.005-0.023 0.028-0.037 0.051-0.032h-0c0.023 0.005 0.037 0.028 0.032 0.051l-0.096 0.414c-0.005 0.023-0.028 0.037-0.051 0.032z"></path>
<path d="M17.915 5.214l0.139 0.098-0.293 0.418-0.139-0.098 0.293-0.418z"></path>
<path d="M13.199 22.147h0.17v0.51h-0.17v-0.51z"></path>
<path d="M8.797 20.913l0.147 0.085-0.255 0.442-0.147-0.085 0.255-0.442z"></path>
<path d="M5.577 17.68l0.093 0.143-0.428 0.278-0.093-0.143 0.428-0.278z"></path>
<path opacity="0.5" d="M12.131 22.066h-0c0.023 0.002 0.040 0.023 0.038 0.047l-0.045 0.423c-0.002 0.023-0.023 0.040-0.047 0.038h0c-0.023-0.002-0.040-0.023-0.038-0.047l0.045-0.423c0.002-0.023 0.023-0.040 0.047-0.038z"></path>
<path opacity="0.5" d="M9.9 21.487l-0-0c0.021 0.010 0.031 0.035 0.022 0.056l-0.173 0.389c-0.010 0.021-0.035 0.031-0.056 0.022l0 0c-0.021-0.010-0.031-0.035-0.022-0.056l0.173-0.389c0.010-0.021 0.035-0.031 0.056-0.022z"></path>
<path opacity="0.5" d="M10.992 21.842h-0c0.023 0.005 0.037 0.028 0.032 0.051l-0.096 0.414c-0.005 0.023-0.028 0.037-0.051 0.032h0c-0.023-0.005-0.037-0.028-0.032-0.051l0.096-0.414c0.005-0.023 0.028-0.037 0.051-0.032z"></path>
<path opacity="0.5" d="M7.933 20.301l-0-0c0.019 0.014 0.023 0.041 0.008 0.060l-0.256 0.34c-0.014 0.019-0.041 0.023-0.060 0.008l0 0c-0.019-0.014-0.023-0.041-0.008-0.060l0.256-0.34c0.014-0.019 0.041-0.023 0.060-0.008z"></path>
<path opacity="0.5" d="M6.323 18.692l-0-0c0.014 0.019 0.011 0.045-0.007 0.060l-0.335 0.262c-0.019 0.014-0.045 0.011-0.060-0.007l0 0c-0.014-0.019-0.011-0.045 0.007-0.060l0.335-0.262c0.019-0.014 0.045-0.011 0.060 0.007z"></path>
<path opacity="0.5" d="M7.043 19.581l-0-0c0.017 0.016 0.017 0.043 0.001 0.060l-0.296 0.306c-0.016 0.017-0.043 0.017-0.060 0.001l0 0c-0.017-0.016-0.017-0.043-0.001-0.060l0.296-0.306c0.016-0.017 0.043-0.017 0.060-0.001z"></path>
<path opacity="0.5" d="M5.144 16.741l-0-0c0.008 0.022-0.003 0.047-0.024 0.055l-0.397 0.152c-0.022 0.008-0.047-0.003-0.055-0.024l0 0c-0.008-0.022 0.003-0.047 0.024-0.055l0.397-0.152c0.022-0.008 0.047 0.003 0.055 0.024z"></path>
<path opacity="0.5" d="M4.558 14.489v-0c0.003 0.023-0.014 0.045-0.037 0.047l-0.422 0.052c-0.023 0.003-0.045-0.014-0.047-0.037v0c-0.003-0.023 0.014-0.045 0.037-0.047l0.422-0.052c0.023-0.003 0.045 0.014 0.047 0.037z"></path>
<path opacity="0.5" d="M4.765 15.594v-0c0.006 0.023-0.007 0.046-0.030 0.052l-0.411 0.11c-0.023 0.006-0.046-0.007-0.052-0.030v0c-0.006-0.023 0.007-0.046 0.030-0.052l0.411-0.11c0.023-0.006 0.046 0.007 0.052 0.030z"></path>
<path d="M3.968 13.426v-0.17h0.51v0.17h-0.51z"></path>
<path opacity="0.5" d="M4.557 12.193v-0c-0.003 0.023-0.025 0.040-0.048 0.036l-0.421-0.059c-0.023-0.003-0.040-0.025-0.036-0.048v0c0.003-0.023 0.025-0.040 0.048-0.036l0.421 0.059c0.023 0.003 0.040 0.025 0.036 0.048z"></path>
<path opacity="0.5" d="M5.142 9.972l0-0c-0.010 0.021-0.035 0.031-0.056 0.022l-0.389-0.173c-0.021-0.010-0.031-0.035-0.022-0.056l-0 0c0.010-0.021 0.035-0.031 0.056-0.022l0.389 0.173c0.021 0.010 0.031 0.035 0.022 0.056z"></path>
<path opacity="0.5" d="M4.766 11.039v-0c-0.006 0.023-0.029 0.037-0.052 0.031l-0.413-0.103c-0.023-0.006-0.037-0.029-0.031-0.052v0c0.006-0.023 0.029-0.037 0.052-0.031l0.413 0.103c0.023 0.006 0.037 0.029 0.031 0.052z"></path>
<path d="M5.187 8.765l0.088-0.146 0.438 0.263-0.088 0.146-0.438-0.263z"></path>
<path opacity="0.5" d="M6.284 7.962l0-0c-0.013 0.019-0.040 0.025-0.059 0.011l-0.353-0.238c-0.019-0.013-0.025-0.040-0.011-0.059l-0 0c0.013-0.019 0.040-0.025 0.059-0.011l0.353 0.238c0.019 0.013 0.025 0.040 0.011 0.059z"></path>
<path opacity="0.5" d="M7.933 6.326l0-0c-0.019 0.014-0.045 0.011-0.060-0.007l-0.262-0.335c-0.014-0.019-0.011-0.045 0.007-0.060l-0 0c0.019-0.014 0.045-0.011 0.060 0.007l0.262 0.335c0.014 0.019 0.011 0.045-0.007 0.060z"></path>
<path opacity="0.5" d="M7.044 7.085l0-0c-0.016 0.017-0.043 0.018-0.060 0.002l-0.311-0.29c-0.017-0.016-0.018-0.043-0.002-0.060l-0 0c0.016-0.017 0.043-0.018 0.060-0.002l0.311 0.29c0.017 0.016 0.018 0.043 0.002 0.060z"></path>
<path opacity="0.5" d="M9.927 5.19l0-0c-0.021 0.010-0.047-0-0.056-0.022l-0.173-0.389c-0.010-0.021 0-0.047 0.022-0.056l-0 0c0.021-0.010 0.047 0 0.056 0.022l0.173 0.389c0.010 0.021-0 0.047-0.022 0.056z"></path>
<path opacity="0.5" d="M12.088 4.623h0c-0.023 0.002-0.044-0.016-0.045-0.040l-0.030-0.425c-0.002-0.023 0.016-0.044 0.040-0.045h-0c0.023-0.002 0.044 0.016 0.045 0.040l0.030 0.425c0.002 0.023-0.016 0.044-0.040 0.045z"></path>
<path opacity="0.5" d="M10.988 4.83h0c-0.023 0.005-0.046-0.009-0.051-0.032l-0.096-0.414c-0.005-0.023 0.009-0.046 0.032-0.051h-0c0.023-0.005 0.046 0.009 0.051 0.032l0.096 0.414c0.005 0.023-0.009 0.046-0.032 0.051z"></path>
<path d="M8.513 5.311l0.139-0.098 0.293 0.418-0.139 0.098-0.293-0.418z"></path>
<path d="M22.341 4.356c0 0.945-0.766 1.711-1.711 1.711s-1.711-0.766-1.711-1.711c0-0.945 0.766-1.711 1.711-1.711s1.711 0.766 1.711 1.711z"></path>
<path d="M19.782 4.453c0-0.35 0.241-0.642 0.478-0.711-0.028 0.095-0.045 0.205-0.048 0.318l-0 0.002c0 0.228 0.067 0.449 0.239 0.581 0.135 0.104 0.354 0.145 0.525 0.145 0 0 0 0 0 0 0.051 0 0.101-0.006 0.148-0.016l-0.005 0.001c-0.114 0.24-0.354 0.404-0.632 0.406h-0c-0.391-0.006-0.706-0.324-0.706-0.716 0-0.004 0-0.007 0-0.011v0.001zM20.584 4.413v-0.059l0.245-0.324v-0.001h-0.244v-0.073h0.348v0.063l-0.239 0.32v0.002h0.242v0.073zM21.053 4.125v-0.046l0.191-0.252v-0.001h-0.19v-0.057h0.27v0.049l-0.186 0.249v0.001h0.188v0.057zM20.796 3.704v-0.033l0.136-0.18v-0.001h-0.136v-0.040h0.193v0.035l-0.133 0.178v0.001h0.134v0.040z"></path>
<path d="M7.706 22.183c0 0.961-0.779 1.74-1.74 1.74s-1.74-0.779-1.74-1.74c0-0.961 0.779-1.74 1.74-1.74s1.74 0.779 1.74 1.74z"></path>
<path d="M5.78 22.653h0.343c-0.016 0.074-0.081 0.129-0.158 0.129-0.005 0-0.009-0-0.014-0.001l0.001 0c-0.004 0-0.009 0.001-0.013 0.001-0.078 0-0.143-0.055-0.158-0.128l-0-0.001zM5.952 22.567h-0.453c-0.015 0-0.029-0.003-0.042-0.008l0.001 0c-0.019-0.009-0.032-0.028-0.032-0.050 0-0.018 0.008-0.034 0.021-0.044l0-0 0.056-0.042c0.081-0.056 0.134-0.149 0.134-0.254 0-0.001 0-0.002-0-0.004v0-0.27c-0-0.003-0-0.006-0-0.009 0-0.166 0.114-0.305 0.269-0.343l0.002-0v-0.092h0.086v0.089c0.167 0.029 0.292 0.173 0.292 0.346 0 0.003-0 0.007-0 0.010v-0 0.27c0 0.001-0 0.002-0 0.003 0 0.105 0.053 0.198 0.133 0.254l0.001 0.001 0.056 0.042c0.013 0.010 0.022 0.026 0.022 0.044 0 0.022-0.013 0.041-0.032 0.050l-0 0c-0.012 0.005-0.026 0.008-0.041 0.008v0z"></path>
</symbol>
</defs>
</svg>
