<svg xmlns="http://www.w3.org/2000/svg" xmlns:xlink="http://www.w3.org/1999/xlink" width="464" height="466" viewBox="0 0 464 466">
  <defs>
    <clipPath id="clip-path">
      <rect id="Rectangle_1" data-name="Rectangle 1" width="464" height="466" transform="translate(-6601 -868)" fill="#fff"/>
    </clipPath>
    <linearGradient id="linear-gradient" x1="0.902" y1="0.246" x2="0.137" y2="0.764" gradientUnits="objectBoundingBox">
      <stop offset="0" stop-color="#ff9500"/>
      <stop offset="1" stop-color="#fc0"/>
    </linearGradient>
  </defs>
  <g id="Mask_Group_1" data-name="Mask Group 1" transform="translate(6601 868)" clip-path="url(#clip-path)">
    <g id="Timer" transform="translate(-6696 -961)">
      <g id="Circles">
        <path id="Circle" d="M231.25,462.5a232.959,232.959,0,0,1-46.6-4.7,229.981,229.981,0,0,1-82.689-34.8A231.926,231.926,0,0,1,18.173,321.263,230.087,230.087,0,0,1,4.7,277.855a233.5,233.5,0,0,1,0-93.21,229.982,229.982,0,0,1,34.8-82.689A231.926,231.926,0,0,1,141.237,18.173,230.085,230.085,0,0,1,184.645,4.7a233.5,233.5,0,0,1,93.21,0,229.983,229.983,0,0,1,82.689,34.8,231.925,231.925,0,0,1,83.783,101.743A230.087,230.087,0,0,1,457.8,184.645a233.5,233.5,0,0,1,0,93.21,229.983,229.983,0,0,1-34.8,82.689,231.925,231.925,0,0,1-101.743,83.783A230.089,230.089,0,0,1,277.855,457.8,232.961,232.961,0,0,1,231.25,462.5ZM232,61.767C138.134,61.767,61.767,138.134,61.767,232S138.134,402.24,232,402.24,402.24,325.872,402.24,232,325.872,61.767,232,61.767Z" transform="translate(95 95)" fill="#171717"/>
        <path id="Shape" d="M231.25,462.5a232.958,232.958,0,0,1-46.6-4.7,229.982,229.982,0,0,1-82.689-34.8A231.927,231.927,0,0,1,18.173,321.263,230.091,230.091,0,0,1,4.7,277.855,232.966,232.966,0,0,1,0,231.25c21.966,0,42.747.047,61.768.139,0,.206,0,.408,0,.615,0,93.869,76.367,170.237,170.236,170.237,93.414,0,169.782-75.988,170.235-169.389,17.951-.444,37.662-.968,60.262-1.6a232.957,232.957,0,0,1-4.7,46.605,229.981,229.981,0,0,1-34.8,82.689,231.924,231.924,0,0,1-101.743,83.783A230.09,230.09,0,0,1,277.855,457.8,232.96,232.96,0,0,1,231.25,462.5Z" transform="translate(0.978 360.408) rotate(-51)" fill="url(#linear-gradient)"/>
      </g>
      <g id="Scale" transform="translate(164 165)">
        <rect id="Rectangle_428" data-name="Rectangle 428" width="2.959" height="8.877" transform="translate(160.521)" fill="#8e8d92"/>
        <rect id="Rectangle_428-2" data-name="Rectangle 428" width="2.959" height="8.877" transform="translate(237.452 295.151) rotate(-30)" fill="#8e8d92"/>
        <rect id="Rectangle_428-3" data-name="Rectangle 428" width="2.959" height="8.877" transform="matrix(0.545, -0.839, 0.839, 0.545, 294.411, 239.934)" fill="#8e8d92"/>
        <rect id="Rectangle_434" data-name="Rectangle 434" width="1.479" height="8.877" rx="0.74" transform="matrix(0.995, -0.105, 0.105, 0.995, 181.308, 313.803)" fill="#5b5b5d" opacity="0.5"/>
        <rect id="Rectangle_434-2" data-name="Rectangle 434" width="1.479" height="8.877" rx="0.74" transform="matrix(0.914, -0.407, 0.407, 0.914, 220.17, 303.958)" fill="#5b5b5d" opacity="0.5"/>
        <rect id="Rectangle_434-3" data-name="Rectangle 434" width="1.479" height="8.877" rx="0.74" transform="translate(201.133 309.986) rotate(-13)" fill="#5b5b5d" opacity="0.5"/>
        <rect id="Rectangle_434-4" data-name="Rectangle 434" width="1.479" height="8.877" rx="0.74" transform="matrix(0.799, -0.602, 0.602, 0.799, 254.466, 283.466)" fill="#5b5b5d" opacity="0.5"/>
        <rect id="Rectangle_434-5" data-name="Rectangle 434" width="1.479" height="8.877" rx="0.74" transform="matrix(0.616, -0.788, 0.788, 0.616, 282.583, 255.632)" fill="#5b5b5d" opacity="0.5"/>
        <rect id="Rectangle_434-6" data-name="Rectangle 434" width="1.479" height="8.877" rx="0.74" transform="matrix(0.719, -0.695, 0.695, 0.719, 270, 271.028)" fill="#5b5b5d" opacity="0.5"/>
        <rect id="Rectangle_434-7" data-name="Rectangle 434" width="1.479" height="8.877" rx="0.74" transform="translate(303.288 221.82) rotate(-69)" fill="#5b5b5d" opacity="0.5"/>
        <rect id="Rectangle_434-8" data-name="Rectangle 434" width="1.479" height="8.877" rx="0.74" transform="translate(313.644 182.701) rotate(-83)" fill="#5b5b5d" opacity="0.5"/>
        <rect id="Rectangle_434-9" data-name="Rectangle 434" width="1.479" height="8.877" rx="0.74" transform="matrix(0.259, -0.966, 0.966, 0.259, 309.945, 201.895)" fill="#5b5b5d" opacity="0.5"/>
        <rect id="Rectangle_428-4" data-name="Rectangle 428" width="2.959" height="8.877" transform="translate(324 160.521) rotate(90)" fill="#8e8d92"/>
        <rect id="Rectangle_434-10" data-name="Rectangle 434" width="1.479" height="8.877" rx="0.74" transform="translate(313.85 142.767) rotate(-98)" fill="#5b5b5d" opacity="0.5"/>
        <rect id="Rectangle_434-11" data-name="Rectangle 434" width="1.479" height="8.877" rx="0.74" transform="matrix(-0.407, -0.914, 0.914, -0.407, 303.889, 104.085)" fill="#5b5b5d" opacity="0.5"/>
        <rect id="Rectangle_434-12" data-name="Rectangle 434" width="1.479" height="8.877" rx="0.74" transform="translate(310.303 122.679) rotate(-104)" fill="#5b5b5d" opacity="0.5"/>
        <rect id="Rectangle_428-5" data-name="Rectangle 428" width="2.959" height="8.877" transform="translate(301.28 79.89) rotate(59)" fill="#8e8d92"/>
        <rect id="Rectangle_434-13" data-name="Rectangle 434" width="1.479" height="8.877" rx="0.74" transform="translate(284.142 69.067) rotate(-124)" fill="#5b5b5d" opacity="0.5"/>
        <rect id="Rectangle_434-14" data-name="Rectangle 434" width="1.479" height="8.877" rx="0.74" transform="matrix(-0.788, -0.616, 0.616, -0.788, 255.632, 40.454)" fill="#5b5b5d" opacity="0.5"/>
        <rect id="Rectangle_434-15" data-name="Rectangle 434" width="1.479" height="8.877" rx="0.74" transform="translate(271.009 53.739) rotate(-133)" fill="#5b5b5d" opacity="0.5"/>
        <rect id="Rectangle_434-16" data-name="Rectangle 434" width="1.479" height="8.877" rx="0.74" transform="matrix(-0.914, -0.407, 0.407, -0.914, 221.05, 20.547)" fill="#5b5b5d" opacity="0.5"/>
        <rect id="Rectangle_434-17" data-name="Rectangle 434" width="1.479" height="8.877" rx="0.74" transform="matrix(-0.995, -0.105, 0.105, -0.995, 183.368, 10.457)" fill="#5b5b5d" opacity="0.5"/>
        <rect id="Rectangle_434-18" data-name="Rectangle 434" width="1.479" height="8.877" rx="0.74" transform="translate(202.647 14.16) rotate(-167)" fill="#5b5b5d" opacity="0.5"/>
        <rect id="Rectangle_428-6" data-name="Rectangle 428" width="2.959" height="8.877" transform="matrix(0.819, 0.574, -0.574, 0.819, 242.544, 20.663)" fill="#8e8d92"/>
        <rect id="Rectangle_428-7" data-name="Rectangle 428" width="2.959" height="8.877" transform="translate(160.521 315.123)" fill="#8e8d92"/>
        <rect id="Rectangle_428-8" data-name="Rectangle 428" width="2.959" height="8.877" transform="translate(83.985 293.671) rotate(30)" fill="#8e8d92"/>
        <rect id="Rectangle_428-9" data-name="Rectangle 428" width="2.959" height="8.877" transform="matrix(0.545, 0.839, -0.839, 0.545, 27.978, 237.452)" fill="#8e8d92"/>
        <rect id="Rectangle_434-19" data-name="Rectangle 434" width="1.479" height="8.877" rx="0.74" transform="matrix(0.995, 0.105, -0.105, 0.995, 141.22, 313.648)" fill="#5b5b5d" opacity="0.5"/>
        <rect id="Rectangle_434-20" data-name="Rectangle 434" width="1.479" height="8.877" rx="0.74" transform="matrix(0.914, 0.407, -0.407, 0.914, 102.478, 303.356)" fill="#5b5b5d" opacity="0.5"/>
        <rect id="Rectangle_434-21" data-name="Rectangle 434" width="1.479" height="8.877" rx="0.74" transform="translate(121.426 309.653) rotate(13)" fill="#5b5b5d" opacity="0.5"/>
        <rect id="Rectangle_434-22" data-name="Rectangle 434" width="1.479" height="8.877" rx="0.74" transform="matrix(0.799, 0.602, -0.602, 0.799, 68.353, 282.575)" fill="#5b5b5d" opacity="0.5"/>
        <rect id="Rectangle_434-23" data-name="Rectangle 434" width="1.479" height="8.877" rx="0.74" transform="matrix(0.616, 0.788, -0.788, 0.616, 40.506, 254.466)" fill="#5b5b5d" opacity="0.5"/>
        <rect id="Rectangle_434-24" data-name="Rectangle 434" width="1.479" height="8.877" rx="0.74" transform="matrix(0.719, 0.695, -0.695, 0.719, 52.936, 270)" fill="#5b5b5d" opacity="0.5"/>
        <rect id="Rectangle_434-25" data-name="Rectangle 434" width="1.479" height="8.877" rx="0.74" transform="translate(20.182 220.438) rotate(69)" fill="#5b5b5d" opacity="0.5"/>
        <rect id="Rectangle_434-26" data-name="Rectangle 434" width="1.479" height="8.877" rx="0.74" transform="translate(10.176 181.233) rotate(83)" fill="#5b5b5d" opacity="0.5"/>
        <rect id="Rectangle_434-27" data-name="Rectangle 434" width="1.479" height="8.877" rx="0.74" transform="matrix(0.259, 0.966, -0.966, 0.259, 13.672, 200.466)" fill="#5b5b5d" opacity="0.5"/>
        <rect id="Rectangle_428-10" data-name="Rectangle 428" width="2.959" height="8.877" transform="translate(0 163.479) rotate(-90)" fill="#8e8d92"/>
        <rect id="Rectangle_434-28" data-name="Rectangle 434" width="1.479" height="8.877" rx="0.74" transform="translate(10.356 141.302) rotate(98)" fill="#5b5b5d" opacity="0.5"/>
        <rect id="Rectangle_434-29" data-name="Rectangle 434" width="1.479" height="8.877" rx="0.74" transform="matrix(-0.407, 0.914, -0.914, -0.407, 20.712, 102.734)" fill="#5b5b5d" opacity="0.5"/>
        <rect id="Rectangle_434-30" data-name="Rectangle 434" width="1.479" height="8.877" rx="0.74" transform="translate(14.055 121.243) rotate(104)" fill="#5b5b5d" opacity="0.5"/>
        <rect id="Rectangle_428-11" data-name="Rectangle 428" width="2.959" height="8.877" transform="translate(21.196 82.427) rotate(-59)" fill="#8e8d92"/>
        <rect id="Rectangle_434-31" data-name="Rectangle 434" width="1.479" height="8.877" rx="0.74" transform="translate(40.685 67.841) rotate(124)" fill="#5b5b5d" opacity="0.5"/>
        <rect id="Rectangle_434-32" data-name="Rectangle 434" width="1.479" height="8.877" rx="0.74" transform="matrix(-0.788, 0.616, -0.616, -0.788, 69.534, 39.543)" fill="#5b5b5d" opacity="0.5"/>
        <rect id="Rectangle_434-33" data-name="Rectangle 434" width="1.479" height="8.877" rx="0.74" transform="translate(54 52.657) rotate(133)" fill="#5b5b5d" opacity="0.5"/>
        <rect id="Rectangle_434-34" data-name="Rectangle 434" width="1.479" height="8.877" rx="0.74" transform="matrix(-0.914, 0.407, -0.407, -0.914, 104.301, 19.945)" fill="#5b5b5d" opacity="0.5"/>
        <rect id="Rectangle_434-35" data-name="Rectangle 434" width="1.479" height="8.877" rx="0.74" transform="matrix(-0.998, 0.07, -0.07, -0.998, 141.951, 10.341)" fill="#5b5b5d" opacity="0.5"/>
        <rect id="Rectangle_434-36" data-name="Rectangle 434" width="1.479" height="8.877" rx="0.74" transform="translate(122.795 13.827) rotate(167)" fill="#5b5b5d" opacity="0.5"/>
        <rect id="Rectangle_428-12" data-name="Rectangle 428" width="2.959" height="8.877" transform="matrix(0.819, -0.574, 0.574, 0.819, 79.033, 22.36)" fill="#8e8d92"/>
      </g>
      <g id="Numbers" transform="translate(187 182)">
        <text id="_12" data-name="12" transform="translate(126.272 0.724)" fill="#fff" font-size="22" font-family="SFUIDisplay-Regular, SF UI Display" letter-spacing="0.016em" opacity="0.5"><tspan x="-11.277" y="21">12</tspan></text>
        <text id="_11" data-name="11" transform="translate(62.691 18.094)" fill="#fff" font-size="22" font-family="SFUIDisplay-Regular, SF UI Display" letter-spacing="0.016em" opacity="0.5"><tspan x="-9.929" y="21">11</tspan></text>
        <text id="_10" data-name="10" transform="translate(12.56 65.861)" fill="#fff" font-size="22" font-family="SFUIDisplay-Regular, SF UI Display" letter-spacing="0.016em" opacity="0.5"><tspan x="-11.723" y="21">10</tspan></text>
        <text id="_9" data-name="9" transform="translate(0 131.722)" fill="#fff" font-size="22" font-family="SFUIDisplay-Regular, SF UI Display" letter-spacing="0.016em" opacity="0.5"><tspan x="-6.585" y="21">9</tspan></text>
        <text id="_8" data-name="8" transform="translate(17.34 196.86)" fill="#fff" font-size="22" font-family="SFUIDisplay-Regular, SF UI Display" letter-spacing="0.016em" opacity="0.5"><tspan x="-6.59" y="21">8</tspan></text>
        <text id="_7" data-name="7" transform="translate(66.026 244.627)" fill="#fff" font-size="22" font-family="SFUIDisplay-Regular, SF UI Display" letter-spacing="0.016em" opacity="0.5"><tspan x="-6.016" y="21">7</tspan></text>
        <text id="_6" data-name="6" transform="translate(131.052 262.274)" fill="#fff" font-size="22" font-family="SFUIDisplay-Regular, SF UI Display" letter-spacing="0.016em" opacity="0.5"><tspan x="-6.585" y="21">6</tspan></text>
        <text id="_5" data-name="5" transform="translate(197.079 244.904)" fill="#fff" font-size="22" font-family="SFUIDisplay-Regular, SF UI Display" letter-spacing="0.016em" opacity="0.5"><tspan x="-6.435" y="21">5</tspan></text>
        <text id="_4" data-name="4" transform="translate(244.319 197.136)" fill="#fff" font-size="22" font-family="SFUIDisplay-Regular, SF UI Display" letter-spacing="0.016em" opacity="0.5"><tspan x="-6.655" y="21">4</tspan></text>
        <text id="_3" data-name="3" transform="translate(262.105 130.999)" fill="#fff" font-size="22" font-family="SFUIDisplay-Regular, SF UI Display" letter-spacing="0.016em" opacity="0.5"><tspan x="-6.51" y="21">3</tspan></text>
        <text id="_2" data-name="2" transform="translate(244.764 65.861)" fill="#fff" font-size="22" font-family="SFUIDisplay-Regular, SF UI Display" letter-spacing="0.016em" opacity="0.5"><tspan x="-6.225" y="21">2</tspan></text>
        <text id="_1" data-name="1" transform="translate(198.524 18.094)" fill="#fff" font-size="22" font-family="SFUIDisplay-Regular, SF UI Display" letter-spacing="0.016em" opacity="0.5"><tspan x="-4.877" y="21">1</tspan></text>
      </g>
      <g id="Bedtime" transform="translate(424 141)">
        <circle id="Oval" cx="29.75" cy="29.75" r="29.75" fill="#171717" stroke="#ffa102" stroke-miterlimit="10" stroke-width="1"/>
        <path id="Icon" d="M0,17.438C0,11.35,4.188,6.274,8.31,5.081a22.618,22.618,0,0,0-.831,5.562c0,3.958,1.16,7.8,4.154,10.106,2.343,1.8,6.152,2.516,9.125,2.516A11.944,11.944,0,0,0,23.267,23a12.228,12.228,0,0,1-11,7.064A12.449,12.449,0,0,1,0,17.438Zm13.946-.7V15.707l4.265-5.628v-.023H13.967V8.791h6.047v1.09l-4.162,5.563v.029h4.207v1.266Zm8.165-5v-.8l3.317-4.378V6.546h-3.3V5.561h4.7v.848l-3.238,4.326v.023h3.272v.986ZM17.642,4.415V3.842L20.012.715V.7H17.654V0h3.36V.606L18.7,3.7v.016h2.337v.7Z" transform="translate(15 14)" fill="#ff9500"/>
      </g>
      <g id="Wake" transform="translate(168 450)">
        <circle id="Oval-2" data-name="Oval" cx="30.25" cy="30.25" r="30.25" transform="translate(0.5 0.5)" fill="#171717" stroke="#ffc701" stroke-miterlimit="10" stroke-width="1"/>
        <path id="Icon-2" data-name="Icon" d="M6.162,20.888H12.13a2.81,2.81,0,0,1-2.984,2.237A2.812,2.812,0,0,1,6.162,20.888ZM9.146,19.4H1.272a1.9,1.9,0,0,1-.712-.139.957.957,0,0,1-.185-1.632l.982-.723A5.362,5.362,0,0,0,3.69,12.42v-4.7A6.134,6.134,0,0,1,8.4,1.6V0H9.893V1.543A6.1,6.1,0,0,1,14.96,7.719v4.7A5.36,5.36,0,0,0,17.294,16.9l.981.723a.957.957,0,0,1-.184,1.632,1.9,1.9,0,0,1-.712.139Z" transform="translate(21.349 18.037)" fill="#fc0"/>
      </g>
      <text id="HR" transform="translate(324 320)" fill="#fff" font-size="22" font-family="SFUIText-Light, SF UI Text" font-weight="300" letter-spacing="0.012em"><tspan x="0" y="21">HR</tspan></text>
      <text id="_6-2" data-name="6" transform="translate(298 345)" fill="#fff" font-size="44" font-family="SFUIDisplay-Light, SF UI Display" font-weight="300"><tspan x="0" y="0">6</tspan></text>
    </g>
  </g>
</svg>
